<svg xmlns:rdf="http://www.w3.org/1999/02/22-rdf-syntax-ns#" xmlns="http://www.w3.org/2000/svg" xmlns:cc="http://creativecommons.org/ns#" xmlns:dc="http://purl.org/dc/elements/1.1/" version="1.1" x="0px" y="0px" viewBox="0 0 100 125"><g transform="translate(0,-952.36218)"><path style="baseline-shift:baseline;block-progression:tb;color:#000000;direction:ltr;text-indent:0;enable-background:accumulate;text-transform:none;" fill="#000" d="M42.875,6.75v0.0312a1.0001,1.0001,0,0,0,-1,0.9688,1.0001,1.0001,0,0,0,0,0.2188v7.2192c-3.615,0.84-6.992,2.218-10.094,4.062l-5.156-5.312a1.0001,1.0001,0,0,0,-1.406,-0.032l-10.344,9.875a1.0001,1.0001,0,0,0,-0.031,1.407l5.156,5.374c-2.209,3.405-3.829,7.215-4.781,11.282h-7.469a1.0001,1.0001,0,0,0,-1,1v14.344a1.0001,1.0001,0,0,0,1,1h7.469c0.955,4.073,2.598,7.845,4.812,11.25l-5.187,5.374a1.0001,1.0001,0,0,0,0.031,1.438l10.344,9.875a1.0001,1.0001,0,0,0,1.406,0l5.187-5.375c3.093,1.836,6.46,3.224,10.063,4.062v7.438a1.0001,1.0001,0,0,0,1,1h14.25a1.0001,1.0001,0,0,0,1,-1v-7.438c3.603-0.838,6.97-2.226,10.063-4.062l5.187,5.375a1.0001,1.0001,0,0,0,1.406,0l10.344-9.875a1.0001,1.0001,0,0,0,0.031,-1.438l-5.187-5.374c2.214-3.405,3.857-7.177,4.812-11.25h7.469a1.0001,1.0001,0,0,0,1,-1v-14.344a1.0001,1.0001,0,0,0,-1,-1h-7.469c-0.952-4.067-2.572-7.877-4.781-11.282l5.156-5.374a1.0001,1.0001,0,0,0,-0.031,-1.407l-10.344-9.875a1.0001,1.0001,0,0,0,-1.406,0l-5.156,5.344c-3.102-1.844-6.479-3.222-10.094-4.062v-7.438a1.0001,1.0001,0,0,0,-1,-1h-14.25zm7.125,16.5c14.796,0,26.781,11.954,26.781,26.75,0,11.848-7.723,21.844-18.375,25.375l0.094-6.563c6.477-3.13,11.073-9.632,11.188-17.312,0.109-7.403-3.902-13.9-9.907-17.344a1.0001,1.0001,0,0,0,-1.5,0.875l-0.25,16.219-8.125,4.562-7.968-4.75,0.25-16.312a1.0001,1.0001,0,0,0,-1.469,-0.875c-6.105,3.265-10.297,9.661-10.407,17.063-0.114,7.686,4.262,14.306,10.657,17.624l-0.094,6.563c-10.272-3.74-17.656-13.549-17.656-25.125,0-14.796,11.985-26.75,26.781-26.75z" transform="translate(0,952.36218)"/></g></svg>