<svg xmlns="http://www.w3.org/2000/svg" xmlns:xlink="http://www.w3.org/1999/xlink" version="1.1" x="0px" y="0px" viewBox="0 0 488 570" style="enable-background:new 0 0 488 456;" xml:space="preserve"><g><rect x="128.429" y="437.23" width="231.143" height="18.77"/><path d="M0,350.259c0,9.104,7.338,16.511,16.358,16.511h455.283c9.021,0,16.358-7.406,16.358-16.511v-20.104H0V350.259z"/><rect x="194.857" y="374.77" width="98.285" height="54.461"/><path d="M204.571,53.538H0v268.616h204.571V53.538z M102.286,80.731c0-4.907,3.978-8.885,8.885-8.885h48.66   c4.907,0,8.885,3.978,8.885,8.885v0.077c0,4.907-3.978,8.885-8.885,8.885h-48.66c-4.907,0-8.885-3.978-8.885-8.885V80.731z    M18.143,80.731c0-4.907,3.978-8.885,8.885-8.885h48.66c4.907,0,8.885,3.978,8.885,8.885v0.077c0,4.907-3.978,8.885-8.885,8.885   h-48.66c-4.907,0-8.885-3.978-8.885-8.885V80.731z M18.143,152.115c0-4.907,3.978-8.885,8.885-8.885h48.66   c4.907,0,8.885,3.978,8.885,8.885v0.077c0,4.907-3.978,8.885-8.885,8.885h-48.66c-4.907,0-8.885-3.978-8.885-8.885V152.115z    M18.143,223.5c0-4.907,3.978-8.885,8.885-8.885h48.66c4.907,0,8.885,3.978,8.885,8.885v0.077c0,4.907-3.978,8.885-8.885,8.885   h-48.66c-4.907,0-8.885-3.978-8.885-8.885V223.5z M18.143,259.192c0-4.907,3.978-8.885,8.885-8.885h48.66   c4.907,0,8.885,3.978,8.885,8.885v0.077c0,4.907-3.978,8.885-8.885,8.885h-48.66c-4.907,0-8.885-3.978-8.885-8.885V259.192z    M146.571,294.962c0,4.907-3.978,8.885-8.885,8.885H27.027c-4.907,0-8.885-3.978-8.885-8.885v-0.077   c0-4.907,3.978-8.885,8.885-8.885h110.66c4.907,0,8.885,3.978,8.885,8.885V294.962z M168.714,259.269   c0,4.907-3.978,8.885-8.885,8.885h-48.66c-4.907,0-8.885-3.978-8.885-8.885v-0.077c0-4.907,3.978-8.885,8.885-8.885h48.66   c4.907,0,8.885,3.978,8.885,8.885V259.269z M168.714,223.577c0,4.907-3.978,8.885-8.885,8.885h-48.66   c-4.907,0-8.885-3.978-8.885-8.885V223.5c0-4.907,3.978-8.885,8.885-8.885h48.66c4.907,0,8.885,3.978,8.885,8.885V223.577z    M186.428,187.885c0,4.907-3.978,8.885-8.885,8.885H27.027c-4.907,0-8.885-3.978-8.885-8.885v-0.077   c0-4.907,3.978-8.885,8.885-8.885h150.517c4.907,0,8.885,3.978,8.885,8.885V187.885z M102.286,152.192v-0.077   c0-4.907,3.978-8.885,8.885-8.885h48.66c4.907,0,8.885,3.978,8.885,8.885v0.077c0,4.907-3.978,8.885-8.885,8.885h-48.66   C106.263,161.077,102.286,157.099,102.286,152.192z M186.428,116.5c0,4.907-3.978,8.885-8.885,8.885H27.027   c-4.907,0-8.885-3.978-8.885-8.885v-0.077c0-4.907,3.978-8.885,8.885-8.885h150.517c4.907,0,8.885,3.978,8.885,8.885V116.5z"/><path d="M471.642,0H16.358C7.338,0,0,7.406,0,16.511v29.027h488V16.511C488,7.406,480.662,0,471.642,0z M394.572,31.692   c-4.892,0-8.857-3.995-8.857-8.923s3.965-8.923,8.857-8.923c4.892,0,8.857,3.995,8.857,8.923S399.463,31.692,394.572,31.692z    M430,31.692c-4.892,0-8.857-3.995-8.857-8.923s3.966-8.923,8.857-8.923c4.892,0,8.857,3.995,8.857,8.923   S434.892,31.692,430,31.692z M465.429,31.692c-4.892,0-8.857-3.995-8.857-8.923s3.965-8.923,8.857-8.923s8.857,3.995,8.857,8.923   S470.32,31.692,465.429,31.692z"/><path d="M212.571,322.154H488V53.538H212.571V322.154z M409.077,96.542c-1.318-1.772-0.951-4.278,0.82-5.598   c1.771-1.316,4.276-0.952,5.598,0.82l53.143,71.385c1.055,1.418,1.055,3.359,0,4.777l-53.143,71.385   c-0.785,1.055-1.991,1.611-3.212,1.611c-0.831,0-1.668-0.258-2.386-0.791c-1.771-1.319-2.139-3.825-0.82-5.598l51.365-68.996   L409.077,96.542z M315.617,235.329l62-142.77c0.88-2.025,3.236-2.954,5.263-2.075c2.026,0.88,2.955,3.236,2.075,5.263l-62,142.77   c-0.654,1.507-2.126,2.407-3.671,2.407c-0.532,0-1.072-0.106-1.592-0.332C315.666,239.712,314.737,237.355,315.617,235.329z    M231.934,163.149l53.144-71.385c1.319-1.772,3.825-2.137,5.598-0.82c1.771,1.319,2.139,3.825,0.819,5.598l-51.365,68.996   l51.365,68.996c1.319,1.772,0.952,4.278-0.819,5.598c-0.718,0.533-1.555,0.791-2.386,0.791c-1.221,0-2.426-0.557-3.212-1.611   l-53.144-71.385C230.879,166.509,230.879,164.567,231.934,163.149z"/></g><text x="0" y="471" fill="#000000" font-size="5px" font-weight="bold" font-family="'Helvetica Neue', Helvetica, Arial-Unicode, Arial, Sans-serif">Created by Amethyst Studio</text><text x="0" y="476" fill="#000000" font-size="5px" font-weight="bold" font-family="'Helvetica Neue', Helvetica, Arial-Unicode, Arial, Sans-serif">from the Noun Project</text></svg>