<svg xmlns="http://www.w3.org/2000/svg" xmlns:xlink="http://www.w3.org/1999/xlink" version="1.1" x="0px" y="0px" viewBox="0 0 64 80" style="enable-background:new 0 0 64 64;" xml:space="preserve"><path d="M57,22H38V3c0-0.553-0.448-1-1-1H11c-0.019,0-0.037,0.01-0.056,0.011c-0.092,0.005-0.181,0.023-0.268,0.053  c-0.03,0.01-0.059,0.018-0.088,0.031c-0.107,0.049-0.208,0.111-0.295,0.197l-8,8c-0.086,0.086-0.147,0.186-0.196,0.293  c-0.014,0.031-0.023,0.062-0.034,0.095c-0.029,0.084-0.045,0.169-0.051,0.257C2.011,10.959,2,10.978,2,11v38c0,0.553,0.448,1,1,1h25  v7c0,2.757,2.243,5,5,5h24c2.757,0,5-2.243,5-5V27C62,24.243,59.757,22,57,22z M10,5.414V10H5.414L10,5.414z M4,48V12h7  c0.552,0,1-0.447,1-1V4h24v18h-3c-2.757,0-5,2.243-5,5v21H4z M60,57c0,1.654-1.346,3-3,3H33c-1.654,0-3-1.346-3-3v-8V27  c0-1.654,1.346-3,3-3h4h20c1.654,0,3,1.346,3,3V57z"/><path d="M20,18c-1.103,0-2-0.897-2-2h-2c0,1.859,1.28,3.411,3,3.858V22h2v-2.142c1.72-0.447,3-1.999,3-3.858  c0-0.334-0.167-0.646-0.445-0.832l-5.493-3.662C18.282,10.642,19.068,10,20,10c1.103,0,2,0.897,2,2h2c0-1.859-1.28-3.411-3-3.858V6  h-2v2.142c-1.72,0.447-3,1.999-3,3.858c0,0.334,0.167,0.646,0.445,0.832l5.493,3.662C21.718,17.358,20.932,18,20,18z"/><rect x="7" y="24" width="19" height="2"/><rect x="7" y="29" width="19" height="2"/><rect x="7" y="34" width="19" height="2"/><rect x="7" y="39" width="19" height="2"/><path d="M56,26H34c-0.552,0-1,0.447-1,1v6c0,0.553,0.448,1,1,1h22c0.552,0,1-0.447,1-1v-6C57,26.447,56.552,26,56,26z M55,32H35v-4  h20V32z"/><path d="M39,36h-4c-0.552,0-1,0.447-1,1v4c0,0.553,0.448,1,1,1h4c0.552,0,1-0.447,1-1v-4C40,36.447,39.552,36,39,36z M38,40h-2v-2h2  V40z"/><path d="M47,36h-4c-0.552,0-1,0.447-1,1v4c0,0.553,0.448,1,1,1h4c0.552,0,1-0.447,1-1v-4C48,36.447,47.552,36,47,36z M46,40h-2v-2h2  V40z"/><path d="M55,36h-4c-0.552,0-1,0.447-1,1v4c0,0.553,0.448,1,1,1h4c0.552,0,1-0.447,1-1v-4C56,36.447,55.552,36,55,36z M54,40h-2v-2h2  V40z"/><path d="M39,44h-4c-0.552,0-1,0.447-1,1v4c0,0.553,0.448,1,1,1h4c0.552,0,1-0.447,1-1v-4C40,44.447,39.552,44,39,44z M38,48h-2v-2h2  V48z"/><path d="M47,44h-4c-0.552,0-1,0.447-1,1v4c0,0.553,0.448,1,1,1h4c0.552,0,1-0.447,1-1v-4C48,44.447,47.552,44,47,44z M46,48h-2v-2h2  V48z"/><path d="M55,44h-4c-0.552,0-1,0.447-1,1v4c0,0.553,0.448,1,1,1h4c0.552,0,1-0.447,1-1v-4C56,44.447,55.552,44,55,44z M54,48h-2v-2h2  V48z"/><path d="M39,52h-4c-0.552,0-1,0.447-1,1v4c0,0.553,0.448,1,1,1h4c0.552,0,1-0.447,1-1v-4C40,52.447,39.552,52,39,52z M38,56h-2v-2h2  V56z"/><path d="M47,52h-4c-0.552,0-1,0.447-1,1v4c0,0.553,0.448,1,1,1h4c0.552,0,1-0.447,1-1v-4C48,52.447,47.552,52,47,52z M46,56h-2v-2h2  V56z"/><path d="M55,52h-4c-0.552,0-1,0.447-1,1v4c0,0.553,0.448,1,1,1h4c0.552,0,1-0.447,1-1v-4C56,52.447,55.552,52,55,52z M54,56h-2v-2h2  V56z"/><text x="0" y="79" fill="#000000" font-size="5px" font-weight="bold" font-family="'Helvetica Neue', Helvetica, Arial-Unicode, Arial, Sans-serif">Created by Becris</text><text x="0" y="84" fill="#000000" font-size="5px" font-weight="bold" font-family="'Helvetica Neue', Helvetica, Arial-Unicode, Arial, Sans-serif">from the Noun Project</text></svg>