<svg xmlns="http://www.w3.org/2000/svg" data-name="Layer 1" viewBox="0 0 128 160" x="0px" y="0px"><title>customer service business support operator</title><g><path d="M101.3955,106.3389,98.8984,87.6055a14.9344,14.9344,0,0,0-7.2822-10.958L85.55,73.45V67a1,1,0,0,0-2,0v5.3963L73.5107,67.1055c-.0152-.0081-.0323-.009-.0479-.0162a.9582.9582,0,0,0-.1117-.0377.9766.9766,0,0,0-.2407-.0487c-.0215-.0015-.0409-.0126-.0625-.0127h-.003c-.02,0-.0384.01-.0586.0116a.981.981,0,0,0-.2481.0492.8231.8231,0,0,0-.3984.23l-8.34,8.3-8.045-8.0065-.0166-3.297c.5683.482,1.157.9535,1.7725,1.4158l.4014.3086A9.788,9.788,0,0,0,64,67.96a9.5526,9.5526,0,0,0,2.5146-.335,1,1,0,0,0-.5292-1.93A7.4926,7.4926,0,0,1,64,65.96a7.7917,7.7917,0,0,1-4.6807-1.5528l-.3984-.3066a29.1177,29.1177,0,0,1-3.2772-2.8263l-.0294-.0292c-3.2686-3.3287-5.294-7.514-5.294-14.3555l-.001-5.5429a20.1532,20.1532,0,0,0,8.3474-4.5657c6.6594,4.9789,15.8511,5.0255,19.014,4.8665L77.68,46.89c0,4.8067-.9541,8.4786-3.002,11.5567l-.0166.0244a1.0006,1.0006,0,0,0,1.5694,1.2324,1.06,1.06,0,0,0,.12-.1621C78.6221,56.123,79.68,52.1025,79.68,46.89l.001-6.3154a.999.999,0,0,0-.3311-.7431.9851.9851,0,0,0-.7734-.251c-.1172.0117-12.0469,1.1855-19.3887-4.9131h0a14.9706,14.9706,0,0,1-4.0662-5.2763,1,1,0,1,0-1.8164.836,16.8419,16.8419,0,0,0,3.8125,5.2793c-3.0469,2.9521-7.9619,4.08-8.0156,4.0927a1,1,0,0,0-.7823.9756L48.32,46.89c0,7.3579,2.14,11.9071,5.6087,15.5143l.025,4.9837L44.45,72.3967V41.55a19.55,19.55,0,0,1,39.1,0V59a1,1,0,0,0,2,0V41.55a21.55,21.55,0,0,0-43.1,0V73.4509l-6.1094,3.22a14.9167,14.9167,0,0,0-7.2392,10.9346l-2.4971,18.7324A5,5,0,0,0,31.5615,112h64.877a5,5,0,0,0,4.957-5.6611ZM65.3936,83.9941H62.6064l-2.0526-3.9422.0694-.0388L64,78.1359l3.3768,1.8772.0694.0388ZM55.027,69.473l7.3255,7.2907-7.01,3.8945-4.1153-6.5859Zm10.62,7.2907,7.3936-7.3584,4.6444,4.6777-4.9609,6.6133ZM29.3027,108.9756a3.0015,3.0015,0,0,1-.7158-2.3731L31.084,87.8691a12.908,12.908,0,0,1,6.2314-9.4521l13.6891-7.2145-1.7779,2.152a.999.999,0,0,0-.0772,1.167l5.001,8.0019a1.0012,1.0012,0,0,0,1.333.3448l3.3215-1.8457,2.1471,4.1239L56.1717,110h-24.61A3.0018,3.0018,0,0,1,29.3027,108.9756ZM58.209,110l4.6172-24.0059h2.3476L69.791,110Zm40.4883-1.0244A3.0018,3.0018,0,0,1,96.4385,110h-24.61l-4.78-24.8536,2.1471-4.1239,3.3215,1.8457a1.0094,1.0094,0,0,0,.4844.125.9988.9988,0,0,0,.8008-.4l6.0019-8.002a1,1,0,0,0-.09-1.3047L78.3573,71.92l12.2843,6.4736a12.9252,12.9252,0,0,1,6.2744,9.4755l2.4971,18.7344A3,3,0,0,1,98.6973,108.9756Z"/><path d="M35,59h4a1,1,0,0,0,1-1V42a24,24,0,0,1,48,0V58a1,1,0,0,0,1,1h2v2a1.0006,1.0006,0,0,1-1,1H73.8157a3,3,0,1,0,0,2H90a3.0033,3.0033,0,0,0,3-3V59a5.0059,5.0059,0,0,0,5-5V46a5.0059,5.0059,0,0,0-5-5H89.9747a25.9937,25.9937,0,0,0-51.9494,0H35a5.0059,5.0059,0,0,0-5,5v8A5.0059,5.0059,0,0,0,35,59Zm36,5a1,1,0,1,1,1-1A1.0006,1.0006,0,0,1,71,64ZM96,46v8a3.0033,3.0033,0,0,1-3,3H90V43h3A3.0033,3.0033,0,0,1,96,46ZM32,46a3.0033,3.0033,0,0,1,3-3h3V57H35a3.0033,3.0033,0,0,1-3-3Z"/></g></svg>