<svg xmlns="http://www.w3.org/2000/svg" xmlns:xlink="http://www.w3.org/1999/xlink" version="1.1" x="0px" y="0px" viewBox="0 0 100 125" style="enable-background:new 0 0 100 100;" xml:space="preserve"><g><path d="M50,94.231c-19.429,0-35.236-15.807-35.236-35.236c0-12.077,6.083-23.183,16.273-29.705   c0.463-0.298,1.077-0.164,1.377,0.296c0.528,0.811,1.048,1.567,1.531,2.269c0.849,1.209,1.601,2.229,2.128,2.935   c1.383-1.852,4.313-5.903,6.542-9.883c0.046-0.084,0.104-0.159,0.17-0.225c0.139-0.14,0.319-0.24,0.525-0.279   c0.444-0.085,0.881-0.161,1.326-0.228c0.285-0.046,0.581-0.084,0.877-0.122l0.107-0.014c0.196-0.024,0.389-0.048,0.588-0.064   c0.825-0.095,1.725-0.157,2.722-0.188c0.903-0.021,1.583-0.023,2.336,0.01l0.38,0.009c0.474,0.021,0.893,0.049,1.321,0.087   c0.362,0.027,0.739,0.066,1.114,0.114c0.083,0.004,0.22,0.021,0.365,0.041c0.786,0.098,1.459,0.203,2.093,0.328   c0.404,0.073,0.823,0.159,1.242,0.254c1.432,0.324,2.799,0.724,4.061,1.188c0.25,0.092,0.453,0.279,0.564,0.521   c0.775,1.693,1.905,3.718,3.358,6.018c1.809,2.854,3.677,5.424,4.7,6.792c0.75-1.002,1.952-2.646,3.246-4.563   c0.169-0.249,0.44-0.41,0.74-0.437c0.297-0.031,0.596,0.083,0.806,0.299c6.435,6.613,9.979,15.331,9.979,24.548   C85.236,78.425,69.43,94.231,50,94.231z M31.294,31.517c-9.118,6.216-14.53,16.414-14.53,27.479   c0,18.326,14.91,33.236,33.236,33.236s33.236-14.91,33.236-33.236c0-8.283-3.035-16.14-8.572-22.259   c-1.868,2.701-3.393,4.659-3.41,4.681c-0.379,0.486-1.197,0.486-1.576,0c-0.028-0.036-2.885-3.703-5.603-7.991   c-1.394-2.207-2.505-4.179-3.308-5.869c-1.073-0.376-2.224-0.704-3.428-0.976c-0.391-0.089-0.78-0.169-1.171-0.239   c-0.603-0.119-1.229-0.218-1.932-0.305c-0.155-0.021-0.247-0.034-0.346-0.04c-0.405-0.05-0.747-0.085-1.089-0.111   c-0.412-0.037-0.802-0.063-1.201-0.081l-0.378-0.009c-0.787-0.032-1.478-0.028-2.166-0.011c-1.008,0.03-1.853,0.088-2.651,0.179   c-0.201,0.018-0.367,0.039-0.536,0.061l-0.107,0.013c-0.271,0.034-0.546,0.07-0.819,0.114c-0.275,0.041-0.543,0.086-0.811,0.133   c-3.06,5.364-7.096,10.55-7.271,10.772c-0.379,0.486-1.197,0.486-1.576,0c-0.053-0.067-1.314-1.685-2.983-4.06   C31.978,32.524,31.64,32.032,31.294,31.517z"/><path d="M57.137,62.294c-0.098,0-0.195-0.004-0.293-0.01c-2.717-0.17-4.558-2.869-4.971-5.448c-0.174-1.066-0.187-2.11-0.178-2.901   c0.002-0.138,0.031-0.273,0.088-0.399c0.718-1.595,0.868-2.503,0.868-2.983c0-3.506-2.853-6.358-6.358-6.358   c-3.087,0-5.722,2.203-6.264,5.237c-0.082,0.459-0.47,0.8-0.936,0.823c-3.32,0.152-6.538-1.568-8.053-4.305   c-1.628-2.947-1.537-6.746,0.279-11.614c0.267-0.731,0.555-1.47,0.843-2.208c0.134-0.344,0.459-0.619,0.824-0.664   c0.372-0.046,0.74,0.082,0.952,0.384c0.853,1.213,1.605,2.236,2.134,2.942c1.383-1.852,4.313-5.903,6.542-9.883   c0.046-0.084,0.104-0.159,0.17-0.224c0.139-0.141,0.319-0.241,0.525-0.28c0.444-0.085,0.881-0.161,1.326-0.228   c0.285-0.046,0.581-0.084,0.877-0.122l0.107-0.014c0.196-0.024,0.389-0.048,0.588-0.064c0.825-0.095,1.725-0.157,2.722-0.188   c0.903-0.021,1.583-0.023,2.336,0.01l0.38,0.009c0.474,0.021,0.893,0.049,1.321,0.087c0.362,0.027,0.739,0.066,1.114,0.114   c0.083,0.004,0.22,0.021,0.365,0.041c0.786,0.098,1.459,0.203,2.093,0.328c0.404,0.073,0.823,0.159,1.242,0.254   c1.432,0.324,2.799,0.724,4.061,1.188c0.25,0.092,0.453,0.279,0.564,0.521c0.775,1.693,1.905,3.718,3.358,6.018   c0.188,0.297,0.205,0.67,0.048,0.983s-0.468,0.521-0.817,0.548c-0.598,0.046-1.202,0.067-1.802,0.089l-0.426,0.015   c-2.569,0.079-5.236,0.273-7.206,1.666c-1.034,0.74-1.806,2.031-1.959,3.284c-0.077,0.625-0.035,1.526,0.598,2.27   c0.81,0.943,2.184,1.255,3.638,1.584c1.319,0.3,2.684,0.609,3.862,1.41c1.794,1.224,2.879,3.472,2.903,6.013   c0.03,2.232-0.691,4.354-1.37,6.167C61.782,60.211,59.626,62.293,57.137,62.294z M53.693,54.161   c-0.003,0.68,0.019,1.524,0.154,2.356c0.28,1.752,1.471,3.667,3.123,3.771c0.054,0.004,0.106,0.005,0.158,0.005   c2.156,0,3.573-2.872,4.234-4.613c0.613-1.64,1.268-3.551,1.241-5.437c0-0.001,0-0.003,0-0.004   c-0.018-1.86-0.795-3.539-2.029-4.381c-0.864-0.588-1.988-0.843-3.179-1.112c-1.708-0.388-3.474-0.788-4.715-2.235   c-0.864-1.014-1.24-2.367-1.063-3.813c0.222-1.811,1.289-3.6,2.785-4.671c2.428-1.717,5.43-1.946,8.296-2.035l0.425-0.015   c0.019-0.001,0.037-0.001,0.056-0.002c-0.981-1.628-1.789-3.108-2.412-4.419c-1.073-0.376-2.224-0.704-3.428-0.976   c-0.391-0.089-0.78-0.169-1.171-0.239c-0.603-0.119-1.229-0.218-1.932-0.305c-0.155-0.021-0.247-0.034-0.346-0.04   c-0.405-0.05-0.747-0.085-1.089-0.111c-0.412-0.037-0.802-0.063-1.201-0.081l-0.378-0.009c-0.787-0.032-1.478-0.028-2.166-0.011   c-1.008,0.03-1.853,0.088-2.651,0.179c-0.201,0.018-0.367,0.039-0.536,0.061l-0.107,0.013c-0.271,0.034-0.546,0.07-0.819,0.114   c-0.275,0.041-0.544,0.086-0.811,0.133c-3.06,5.364-7.096,10.55-7.271,10.772c-0.379,0.486-1.197,0.486-1.576,0   c-0.041-0.052-0.795-1.019-1.899-2.542c-0.064,0.172-0.128,0.342-0.19,0.513c-1.603,4.295-1.733,7.549-0.405,9.954   c1.041,1.88,3.174,3.136,5.461,3.271c1.013-3.557,4.27-6.059,8.041-6.059c4.608,0,8.358,3.75,8.358,8.358   C54.651,51.508,54.338,52.69,53.693,54.161z"/><path d="M46.32,82.626c-0.703,0.001-1.402-0.137-2.054-0.424c-1.487-0.656-2.446-1.879-3.373-3.062   c-0.226-0.287-0.45-0.574-0.682-0.85c-0.437-0.52-1.983-2.183-3.447-1.754c-0.423,0.122-0.841,0.424-1.284,0.744   c-0.433,0.313-0.881,0.636-1.423,0.874c-2.748,1.204-5.848-0.731-7.016-3.293l0,0c-1.36-2.982-1.79-7.688,0.021-10.908   c1.057-1.88,2.755-3.009,4.91-3.266c3.044-0.358,6.138,1.523,7.217,4.384c0.191,0.508,0.32,1.026,0.444,1.527   c0.222,0.895,0.431,1.74,0.955,2.26c0.717,0.711,1.941,0.757,3.238,0.806c0.549,0.021,1.116,0.041,1.673,0.114   c2.386,0.31,4.559,1.725,5.67,3.69c1.226,2.168,1.111,4.916-0.283,6.837C49.811,81.787,48.058,82.626,46.32,82.626z M37.257,74.468   c1.511,0,3.098,0.885,4.486,2.536c0.246,0.293,0.484,0.598,0.725,0.902c0.811,1.034,1.576,2.012,2.605,2.466   c1.375,0.607,3.257,0.05,4.194-1.241c0.929-1.278,0.995-3.201,0.161-4.677c-0.808-1.43-2.412-2.461-4.187-2.692   c-0.466-0.061-0.964-0.079-1.49-0.099c-1.547-0.058-3.3-0.123-4.571-1.384c-0.923-0.914-1.223-2.128-1.488-3.199   c-0.115-0.465-0.224-0.904-0.374-1.302c-0.752-1.992-2.998-3.361-5.109-3.104c-1.517,0.181-2.661,0.94-3.403,2.26   c-1.468,2.611-1.066,6.637,0.057,9.098l0,0c0.755,1.658,2.799,2.991,4.393,2.291c0.347-0.151,0.69-0.4,1.055-0.663   c0.536-0.387,1.143-0.825,1.898-1.045C36.551,74.517,36.901,74.468,37.257,74.468z"/><path d="M65.979,77.927c-3.054,0-3.997-2.18-4.235-2.957c-0.936-3.054,1.06-7.871,4.94-9.272c1.905-0.688,4.096-0.365,5.72,0.843   c1.439,1.07,2.211,2.691,2.116,4.448c-0.182,3.341-3.397,5.878-6.481,6.658C67.263,77.843,66.58,77.927,65.979,77.927z    M68.729,67.345c-0.466,0-0.931,0.076-1.365,0.233l0,0c-2.76,0.996-4.372,4.636-3.707,6.807c0.542,1.77,2.413,1.696,3.892,1.322   c2.316-0.586,4.847-2.477,4.975-4.826c0.079-1.473-0.788-2.347-1.312-2.735C70.506,67.621,69.614,67.345,68.729,67.345z    M67.023,66.638h0.01H67.023z"/><path d="M70.467,41.803c-0.308,0-0.599-0.142-0.788-0.385c-0.437-0.559-10.688-13.751-10.688-19.813   c0-6.328,5.147-11.477,11.476-11.477s11.476,5.148,11.476,11.477c0,6.062-10.251,19.254-10.688,19.813   C71.065,41.661,70.774,41.803,70.467,41.803z M70.467,12.129c-5.225,0-9.476,4.251-9.476,9.477c0,4.097,6.243,13.25,9.476,17.552   c3.232-4.302,9.476-13.455,9.476-17.552C79.942,16.38,75.691,12.129,70.467,12.129z M70.467,26.692   c-2.806,0-5.088-2.282-5.088-5.087c0-2.806,2.282-5.088,5.088-5.088s5.088,2.282,5.088,5.088   C75.555,24.41,73.272,26.692,70.467,26.692z M70.467,18.518c-1.703,0-3.088,1.385-3.088,3.088c0,1.702,1.385,3.087,3.088,3.087   s3.088-1.385,3.088-3.087C73.555,19.902,72.17,18.518,70.467,18.518z"/><path d="M36.078,37.441c-0.308,0-0.599-0.142-0.788-0.385c-0.437-0.559-10.688-13.75-10.688-19.813   c0-6.328,5.148-11.476,11.477-11.476s11.476,5.147,11.476,11.476c0,6.063-10.251,19.254-10.688,19.813   C36.677,37.3,36.386,37.441,36.078,37.441z M36.078,7.769c-5.226,0-9.477,4.251-9.477,9.476c0,4.098,6.244,13.25,9.477,17.552   c3.232-4.302,9.476-13.454,9.476-17.552C45.554,12.02,41.303,7.769,36.078,7.769z M36.078,22.332c-2.806,0-5.088-2.282-5.088-5.088   s2.282-5.088,5.088-5.088s5.088,2.282,5.088,5.088S38.884,22.332,36.078,22.332z M36.078,14.156c-1.703,0-3.088,1.385-3.088,3.088   s1.385,3.088,3.088,3.088s3.088-1.385,3.088-3.088S37.781,14.156,36.078,14.156z"/><path d="M46.296,65.035c-0.308,0-0.599-0.142-0.788-0.385c-0.774-0.991-7.57-9.813-7.57-14.1c0-4.608,3.75-8.357,8.358-8.357   s8.358,3.749,8.358,8.357c0,4.286-6.796,13.108-7.57,14.1C46.895,64.894,46.604,65.035,46.296,65.035z M46.296,44.193   c-3.506,0-6.358,2.852-6.358,6.357c0,2.706,4.053,8.727,6.358,11.831c2.305-3.105,6.358-9.127,6.358-11.831   C52.654,47.045,49.802,44.193,46.296,44.193z M46.296,54.423c-2.135,0-3.871-1.737-3.871-3.872s1.736-3.871,3.871-3.871   s3.871,1.736,3.871,3.871S48.431,54.423,46.296,54.423z M46.296,48.68c-1.031,0-1.871,0.84-1.871,1.871   c0,1.032,0.84,1.872,1.871,1.872s1.871-0.84,1.871-1.872C48.167,49.52,47.327,48.68,46.296,48.68z"/></g></svg>